<svg xmlns="http://www.w3.org/2000/svg" width="682.667" height="682.667" preserveAspectRatio="xMidYMid meet" version="1.0" viewBox="0 0 512 512"><metadata>Created by potrace 1.11, written by Peter Selinger 2001-2013</metadata><g fill="#000" stroke="none"><path d="M381 5104 c-175 -47 -320 -193 -366 -369 -13 -52 -15 -307 -15 -2175 0 -1868 2 -2123 15 -2175 47 -178 192 -323 370 -370 52 -13 307 -15 2175 -15 1868 0 2123 2 2175 15 178 47 323 192 370 370 13 52 15 307 15 2175 0 1868 -2 2123 -15 2175 -47 178 -192 323 -370 370 -52 13 -306 15 -2180 14 -1818 0 -2128 -2 -2174 -15z m2267 -1315 c53 -18 62 -24 62 -45 0 -26 -85 -313 -205 -689 -42 -132 -128 -406 -190 -610 -174 -565 -313 -962 -383 -1090 l-27 -50 -60 1 c-70 1 -122 24 -131 58 -8 33 -3 51 181 616 90 278 198 615 241 750 149 475 291 880 359 1023 24 52 29 57 59 57 18 0 60 -9 94 -21z m-1421 -129 c43 -6 90 -16 106 -22 24 -9 27 -15 27 -57 0 -29 -9 -64 -22 -91 -26 -51 -24 -51 -168 -30 -99 14 -180 7 -267 -21 -159 -52 -229 -172 -189 -327 31 -121 90 -188 326 -367 183 -139 241 -194 304 -289 70 -106 100 -206 99 -331 -2 -193 -141 -390 -348 -491 -113 -55 -223 -81 -396 -96 -116 -10 -155 -9 -272 5 -183 23 -187 25 -187 84 0 54 14 110 33 137 11 16 18 16 54 7 182 -49 510 -24 655 50 154 78 216 252 144 403 -40 82 -138 182 -296 300 -173 130 -249 201 -309 292 -80 120 -95 168 -96 314 0 121 1 127 33 194 116 246 426 381 769 336z m2633 -54 c481 -74 793 -258 935 -551 53 -108 71 -175 87 -318 26 -232 -31 -463 -165 -662 -61 -91 -192 -220 -288 -284 -224 -151 -489 -208 -1009 -218 -253 -5 -289 -4 -318 11 -17 9 -36 25 -42 35 -17 33 -3 1923 15 1978 4 12 14 24 24 27 9 2 160 3 336 2 231 -3 349 -8 425 -20z" transform="translate(0.000000,512.000000) scale(0.100000,-0.100000)"/><path d="M3438 3393 l-88 -4 0 -458 c0 -252 -3 -614 -7 -804 l-6 -347 74 0 c99 0 294 17 399 35 133 22 256 61 370 117 90 44 118 64 191 138 140 139 188 260 196 495 4 117 1 155 -16 233 -64 292 -257 470 -602 556 -100 25 -300 48 -384 44 -22 -1 -79 -4 -127 -5z" transform="translate(0.000000,512.000000) scale(0.100000,-0.100000)"/></g></svg>